<svg width="63" height="63" viewBox="0 0 63 63" fill="none" xmlns="http://www.w3.org/2000/svg">
<g id="Envelope">
<path id="Vector" d="M55.0069 11.8993H8.53367C8.02011 11.8993 7.52759 12.1033 7.16444 12.4664C6.8013 12.8296 6.59729 13.3221 6.59729 13.8357V46.7542C6.59729 47.7813 7.00531 48.7664 7.7316 49.4927C8.45788 50.2189 9.44294 50.627 10.4701 50.627H53.0705C54.0976 50.627 55.0827 50.2189 55.809 49.4927C56.5353 48.7664 56.9433 47.7813 56.9433 46.7542V13.8357C56.9433 13.3221 56.7393 12.8296 56.3761 12.4664C56.013 12.1033 55.5205 11.8993 55.0069 11.8993ZM24.6807 31.2631L10.4701 44.2877V18.2385L24.6807 31.2631ZM27.5465 33.8894L30.4511 36.564C30.8084 36.8919 31.2757 37.0739 31.7606 37.0739C32.2455 37.0739 32.7128 36.8919 33.0701 36.564L35.9747 33.8894L50.0134 46.7542H13.5126L27.5465 33.8894ZM38.8599 31.2631L53.0705 18.2361V44.2902L38.8599 31.2631Z" fill="#545AAE"/>
</g>
</svg>
