<svg width="63" height="62" viewBox="0 0 63 62" fill="none" xmlns="http://www.w3.org/2000/svg">
<g id="FigmaLogo">
<path id="Vector" d="M46.694 23.235C48.3195 22.0158 49.5203 20.3161 50.1261 18.3766C50.732 16.4371 50.7122 14.3561 50.0697 12.4285C49.4271 10.5008 48.1944 8.82421 46.546 7.63613C44.8976 6.44804 42.9172 5.80872 40.8853 5.80872H23.459C21.4271 5.80872 19.4467 6.44804 17.7983 7.63613C16.1499 8.82421 14.9171 10.5008 14.2746 12.4285C13.632 14.3561 13.6123 16.4371 14.2181 18.3766C14.824 20.3161 16.0247 22.0158 17.6503 23.235C16.4195 24.1573 15.4262 25.3597 14.7526 26.7424C14.0791 28.1251 13.7446 29.6484 13.7771 31.1861C13.8095 32.7238 14.2078 34.2317 14.939 35.5848C15.6702 36.9379 16.7133 38.0973 17.9818 38.967C16.5389 40.064 15.3999 41.5112 14.6726 43.1714C13.9453 44.8317 13.6539 46.6501 13.8258 48.4545C13.9977 50.2589 14.6273 51.9896 15.655 53.4826C16.6828 54.9757 18.0746 56.1817 19.6987 56.9865C21.3228 57.7913 23.1254 58.1683 24.9359 58.0817C26.7464 57.9951 28.5049 57.4478 30.0447 56.4917C31.5846 55.5355 32.8549 54.2022 33.7355 52.6178C34.616 51.0335 35.0776 49.2507 35.0765 47.4381V38.725C37.1306 40.2655 39.7126 40.927 42.2544 40.5639C44.7962 40.2008 47.0897 38.8428 48.6303 36.7887C50.1708 34.7346 50.8323 32.1527 50.4692 29.6108C50.1061 27.069 48.7481 24.7755 46.694 23.235ZM31.204 36.7887H23.459C21.9184 36.7887 20.441 36.1767 19.3516 35.0874C18.2622 33.998 17.6503 32.5205 17.6503 30.98C17.6503 29.4394 18.2622 27.9619 19.3516 26.8726C20.441 25.7832 21.9184 25.1712 23.459 25.1712H31.204V36.7887ZM40.8853 21.2987H35.0765V9.68122H40.8853C42.4258 9.68122 43.9033 10.2932 44.9927 11.3826C46.082 12.4719 46.694 13.9494 46.694 15.49C46.694 17.0305 46.082 18.508 44.9927 19.5974C43.9033 20.6867 42.4258 21.2987 40.8853 21.2987Z" fill="#545AAE"/>
</g>
</svg>
