<svg width="58" height="57" viewBox="0 0 58 57" fill="none" xmlns="http://www.w3.org/2000/svg">
<g id="Frame">
<g clip-path="url(#clip0_4_30)">
<rect x="0.928589" y="0.633057" width="56.3312" height="56.3312" rx="5.63312" fill="#9EA5FF"/>
<path id="Vector" d="M54.7465 -2.74683H2.31519C1.05104 -2.74683 -0.161334 -2.24464 -1.05522 -1.35076C-1.94911 -0.456867 -2.45129 0.755507 -2.45129 2.01966V54.451C-2.45129 55.7151 -1.94911 56.9275 -1.05522 57.8214C-0.161334 58.7153 1.05104 59.2175 2.31519 59.2175H54.7465C56.0107 59.2175 57.223 58.7153 58.1169 57.8214C59.0108 56.9275 59.513 55.7151 59.513 54.451V2.01966C59.513 0.755507 59.0108 -0.456867 58.1169 -1.35076C57.223 -2.24464 56.0107 -2.74683 54.7465 -2.74683ZM18.9979 42.5348C18.9979 43.1668 18.7468 43.773 18.2998 44.22C17.8529 44.6669 17.2467 44.918 16.6146 44.918C15.9826 44.918 15.3764 44.6669 14.9294 44.22C14.4825 43.773 14.2314 43.1668 14.2314 42.5348V23.4688C14.2314 22.8368 14.4825 22.2306 14.9294 21.7836C15.3764 21.3367 15.9826 21.0856 16.6146 21.0856C17.2467 21.0856 17.8529 21.3367 18.2998 21.7836C18.7468 22.2306 18.9979 22.8368 18.9979 23.4688V42.5348ZM16.6146 18.7024C15.9076 18.7024 15.2164 18.4927 14.6286 18.0999C14.0407 17.7071 13.5825 17.1487 13.3119 16.4955C13.0413 15.8423 12.9705 15.1235 13.1085 14.4301C13.2464 13.7366 13.5869 13.0996 14.0868 12.5997C14.5868 12.0997 15.2238 11.7593 15.9172 11.6213C16.6107 11.4834 17.3295 11.5542 17.9827 11.8247C18.6359 12.0953 19.1942 12.5535 19.587 13.1414C19.9798 13.7293 20.1895 14.4204 20.1895 15.1275C20.1895 16.0756 19.8129 16.9849 19.1425 17.6553C18.472 18.3257 17.5628 18.7024 16.6146 18.7024ZM45.2135 42.5348C45.2135 43.1668 44.9625 43.773 44.5155 44.22C44.0686 44.6669 43.4624 44.918 42.8303 44.918C42.1982 44.918 41.592 44.6669 41.1451 44.22C40.6981 43.773 40.4471 43.1668 40.4471 42.5348V31.8102C40.4471 30.23 39.8193 28.7145 38.702 27.5972C37.5846 26.4798 36.0691 25.8521 34.489 25.8521C32.9088 25.8521 31.3933 26.4798 30.2759 27.5972C29.1586 28.7145 28.5308 30.23 28.5308 31.8102V42.5348C28.5308 43.1668 28.2798 43.773 27.8328 44.22C27.3859 44.6669 26.7797 44.918 26.1476 44.918C25.5155 44.918 24.9093 44.6669 24.4624 44.22C24.0155 43.773 23.7644 43.1668 23.7644 42.5348V23.4688C23.7673 22.8851 23.9844 22.3227 24.3745 21.8884C24.7646 21.4541 25.3005 21.1781 25.8806 21.1127C26.4607 21.0473 27.0446 21.1971 27.5216 21.5336C28.2039 22.0151 29.2163 22.4375 29.9737 22.0859C31.2053 21.5143 32.5392 21.1795 33.9055 21.105C35.8508 20.999 37.7882 21.4249 39.5097 22.337C41.2312 23.249 42.6718 24.6128 43.6767 26.2818C44.6816 27.9508 45.2129 29.862 45.2135 31.8102V42.5348Z" fill="#545AAE"/>
</g>
</g>
<defs>
<clipPath id="clip0_4_30">
<rect x="0.928589" y="0.633057" width="56.3312" height="56.3312" rx="5.63312" fill="white"/>
</clipPath>
</defs>
</svg>
