<svg width="63" height="63" viewBox="0 0 63 63" fill="none" xmlns="http://www.w3.org/2000/svg">
<g id="GithubLogo" clip-path="url(#clip0_4_34)">
<path id="Vector" d="M52.5421 25.553V27.4893C52.5381 30.7657 51.3487 33.93 49.1936 36.3978C47.0385 38.8657 44.0633 40.4704 40.8173 40.9157C42.1423 42.6112 42.8615 44.7014 42.8602 46.8532V56.5351C42.8602 57.0487 42.6562 57.5412 42.2931 57.9043C41.9299 58.2675 41.4374 58.4715 40.9238 58.4715H25.4328C24.9192 58.4715 24.4267 58.2675 24.0635 57.9043C23.7004 57.5412 23.4964 57.0487 23.4964 56.5351V52.6623H17.6872C15.1194 52.6623 12.6568 51.6423 10.8411 49.8266C9.02536 48.0109 8.0053 45.5482 8.0053 42.9804C8.0053 41.4397 7.39327 39.9622 6.30384 38.8727C5.21441 37.7833 3.73683 37.1713 2.19615 37.1713C1.68259 37.1713 1.19006 36.9673 0.826919 36.6041C0.463777 36.241 0.259766 35.7484 0.259766 35.2349C0.259766 34.7213 0.463777 34.2288 0.826919 33.8656C1.19006 33.5025 1.68259 33.2985 2.19615 33.2985C3.4676 33.2985 4.72659 33.5489 5.90126 34.0355C7.07592 34.522 8.14325 35.2352 9.0423 36.1343C9.94135 37.0333 10.6545 38.1006 11.1411 39.2753C11.6276 40.45 11.8781 41.709 11.8781 42.9804C11.8781 44.5211 12.4901 45.9987 13.5795 47.0881C14.669 48.1775 16.1465 48.7896 17.6872 48.7896H23.4964V46.8532C23.4951 44.7014 24.2143 42.6112 25.5393 40.9157C22.2933 40.4704 19.3181 38.8657 17.163 36.3978C15.0079 33.93 13.8185 30.7657 13.8145 27.4893V25.553C13.8386 23.1465 14.4794 20.7863 15.6758 18.6982C15.0839 16.7889 14.8941 14.7777 15.1182 12.7913C15.3423 10.805 15.9756 8.8867 16.978 7.15731C17.148 6.86288 17.3925 6.61839 17.687 6.44844C17.9814 6.27848 18.3154 6.18904 18.6554 6.18912C20.9108 6.1844 23.1361 6.70726 25.1535 7.71592C27.1708 8.72458 28.9242 10.1911 30.2737 11.9983H36.0829C37.4324 10.1911 39.1858 8.72458 41.2031 7.71592C43.2205 6.70726 45.4457 6.1844 47.7012 6.18912C48.0412 6.18904 48.3752 6.27848 48.6696 6.44844C48.9641 6.61839 49.2086 6.86288 49.3786 7.15731C50.3812 8.88666 51.0143 10.8051 51.238 12.7915C51.4618 14.7779 51.2712 16.7891 50.6784 18.6982C51.877 20.7855 52.5188 23.146 52.5421 25.553Z" fill="#545AAE"/>
</g>
<defs>
<clipPath id="clip0_4_34">
<rect width="61.9643" height="61.9643" fill="white" transform="translate(0.259766 0.379883)"/>
</clipPath>
</defs>
</svg>
