<svg width="62" height="62" viewBox="0 0 62 62" fill="none" xmlns="http://www.w3.org/2000/svg">
<g id="WhatsappLogo">
<path id="Vector" d="M36.6996 34.8734L42.2667 37.6521C42.0028 38.9707 41.2896 40.1569 40.2488 41.0084C39.208 41.8599 37.904 42.3239 36.5592 42.3213C31.9388 42.3161 27.509 40.4784 24.2418 37.2112C20.9746 33.944 19.1369 29.5143 19.1318 24.8938C19.1314 23.5507 19.5964 22.249 20.4477 21.2102C21.299 20.1713 22.4839 19.4596 23.8009 19.196L26.5796 24.7631L24.2148 28.2825C24.0381 28.5475 23.9295 28.8521 23.8987 29.1692C23.8678 29.4863 23.9157 29.8061 24.0381 30.1003C25.4235 33.393 28.0431 36.0126 31.3358 37.398C31.6309 37.5258 31.9531 37.5781 32.2734 37.5502C32.5937 37.5223 32.902 37.4151 33.1706 37.2382L36.6996 34.8734ZM55.9231 30.7029C55.924 35.049 54.7998 39.3213 52.6597 43.1039C50.5197 46.8866 47.4367 50.0507 43.711 52.2884C39.9853 54.526 35.7437 55.761 31.3991 55.8731C27.0545 55.9851 22.7549 54.9704 18.9188 52.9278L10.677 55.675C9.99467 55.9026 9.26241 55.9356 8.56233 55.7704C7.86225 55.6052 7.22201 55.2483 6.71338 54.7396C6.20475 54.231 5.84783 53.5908 5.68261 52.8907C5.5174 52.1906 5.55042 51.4584 5.77799 50.776L8.52523 42.5343C6.72959 39.1582 5.72667 35.4175 5.59257 31.596C5.45848 27.7745 6.19674 23.9727 7.75133 20.4792C9.30592 16.9856 11.636 13.8921 14.5646 11.4335C17.4933 8.97488 20.9435 7.21577 24.6535 6.28969C28.3635 5.36361 32.2358 5.2949 35.9763 6.08877C39.7168 6.88264 43.2273 8.51824 46.2414 10.8714C49.2554 13.2246 51.6937 16.2334 53.3713 19.6697C55.0488 23.1059 55.9215 26.8791 55.9231 30.7029ZM46.2411 36.5121C46.2414 36.1524 46.1414 35.7997 45.9525 35.4936C45.7635 35.1874 45.493 34.94 45.1713 34.779L37.4258 30.9063C37.1209 30.7543 36.7813 30.6855 36.4413 30.7068C36.1013 30.728 35.773 30.8386 35.4894 31.0273L31.9337 33.3994C30.3015 32.5021 28.9582 31.1588 28.0609 29.5266L30.433 25.9709C30.6217 25.6873 30.7323 25.359 30.7535 25.019C30.7748 24.679 30.706 24.3394 30.554 24.0345L26.6813 16.289C26.5207 15.9648 26.2726 15.6921 25.965 15.5017C25.6574 15.3113 25.3027 15.2109 24.9409 15.2119C22.3731 15.2119 19.9105 16.2319 18.0948 18.0476C16.2791 19.8634 15.259 22.326 15.259 24.8938C15.2654 30.541 17.5116 35.9551 21.5048 39.9483C25.498 43.9414 30.912 46.1876 36.5592 46.194C37.8307 46.194 39.0897 45.9436 40.2643 45.457C41.439 44.9705 42.5063 44.2573 43.4054 43.3582C44.3044 42.4592 45.0176 41.3919 45.5042 40.2172C45.9907 39.0425 46.2411 37.7836 46.2411 36.5121Z" fill="#545AAE"/>
</g>
</svg>
