<svg xmlns="http://www.w3.org/2000/svg" xmlns:xlink="http://www.w3.org/1999/xlink" viewBox="0,0,256,256" width="48px" height="48px" fill-rule="nonzero"><defs><linearGradient x1="10.281" y1="1.322" x2="24.742" y2="16.996" gradientUnits="userSpaceOnUse" id="color-1"><stop offset="0" stop-color="#545aae"></stop><stop offset="1" stop-color="#545aae"></stop></linearGradient><linearGradient x1="17.184" y1="23.368" x2="27.74" y2="36.213" gradientUnits="userSpaceOnUse" id="color-2"><stop offset="0" stop-color="#545aae"></stop><stop offset="1" stop-color="#545aae"></stop></linearGradient><linearGradient x1="27.324" y1="27.209" x2="33.437" y2="37.448" gradientUnits="userSpaceOnUse" id="color-3"><stop offset="0" stop-color="#545aae"></stop><stop offset="1" stop-color="#545aae"></stop></linearGradient></defs><g fill="none" fill-rule="nonzero" stroke="none" stroke-width="1" stroke-linecap="butt" stroke-linejoin="miter" stroke-miterlimit="10" stroke-dasharray="" stroke-dashoffset="0" font-family="none" font-weight="none" font-size="none" text-anchor="none" style="mix-blend-mode: normal"><g transform="scale(5.33333,5.33333)"><path d="M4.662,6.941c-0.001,0 -0.003,0 -0.004,0c-1.42,0 -2.179,1.675 -1.241,2.743l12.583,14.316l14.869,-16.841c-0.241,-0.101 -0.501,-0.16 -0.768,-0.161z" fill="url(#color-1)"></path><path d="M38.056,14.996l-6.46,-7.322c-0.202,-0.229 -0.452,-0.401 -0.727,-0.516l-14.869,16.842l-12.543,14.215c-0.951,1.078 -0.192,2.769 1.24,2.782l10.785,-0.007z" fill="url(#color-2)"></path><path d="M44.217,21.982l-6.161,-6.985l-22.574,26.003l14.796,-0.01c0.506,-0.046 0.98,-0.273 1.319,-0.658l12.62,-14.308c1.019,-1.154 1.019,-2.887 0,-4.042z" fill="url(#color-3)"></path><path d="M16,24l14.869,-16.841c-0.241,-0.101 -0.501,-0.16 -0.768,-0.161l-0.423,-0.001l-14.342,16.248z" fill="#9ea5ff" opacity="0.05"></path><path d="M15.669,23.624l0.331,0.376l14.869,-16.841c-0.173,-0.073 -0.358,-0.114 -0.546,-0.137z" fill="#9ea5ff" opacity="0.07"></path></g></g></svg>