<svg width="66" height="55" viewBox="0 0 66 55" fill="none" xmlns="http://www.w3.org/2000/svg">
<path d="M4.43506 4.9856L14.3564 5.20157L18.8985 14.9419L13.263 23.9172L4.43506 4.9856Z" fill="#334666"/>
<path d="M18.8307 35.4702L24.7438 26.8551L35.4351 50.3237L25.757 50.3237L18.8307 35.4702Z" fill="#334666"/>
<path d="M33.4573 25.9862L38.192 29.0774L41.016 24.1862L41.6824 42.4126L37.8363 49.0742L33.4573 39.6834L33.4573 25.9862Z" fill="#334666"/>
<path d="M43.6259 19.9196L50.1258 8.66122L50.8959 27.0825L44.8959 37.5825L43.6259 19.9196Z" fill="#334666"/>
<path d="M53.8959 24.1746L53.2419 5.26413L65.1542 5.26414L53.8959 24.1746Z" fill="#334666"/>
<path d="M11.1222 34.0851L9.09081 45.6035L26.6764 15.1445L23.2123 13.1445L11.1222 34.0851Z" fill="#334666"/>
<path d="M22.1594 16.8786L24.0447 13.6347L38.4609 21.9103L36.5794 25.1562L22.1594 16.8786Z" fill="#334666"/>
<rect x="40.7511" y="9.76636" width="4" height="15.4076" transform="rotate(30 40.7511 9.76636)" fill="#334666"/>
<path d="M45.9833 4.70412L45.4474 13.6323L38.5192 9.6323L45.9833 4.70412Z" fill="#334666"/>
</svg>
